<?xml version="1.0" encoding="UTF-8" standalone="no"?>
<!DOCTYPE svg PUBLIC "-//W3C//DTD SVG 1.1//EN"
 "http://www.w3.org/Graphics/SVG/1.1/DTD/svg11.dtd">
<!-- Generated by graphviz version 2.43.0 (0)
 -->
<!-- Title: dag Pages: 1 -->
<svg width="1197pt" height="761pt"
 viewBox="0.00 0.00 1196.60 760.80" xmlns="http://www.w3.org/2000/svg" xmlns:xlink="http://www.w3.org/1999/xlink">
<g id="graph0" class="graph" transform="scale(1 1) rotate(0) translate(4 756.8)">
<title>dag</title>
<polygon fill="white" stroke="transparent" points="-4,4 -4,-756.8 1192.6,-756.8 1192.6,4 -4,4"/>
<!-- v0 -->
<g id="node1" class="node">
<title>v0</title>
<ellipse fill="black" stroke="black" cx="163.6" cy="-661.6" rx="3.6" ry="3.6"/>
<text text-anchor="middle" x="80" y="-669" font-family="Times,serif" font-size="14.00">Channel.fromFilePairs</text>
</g>
<!-- v5 -->
<g id="node2" class="node">
<title>v5</title>
<ellipse fill="none" stroke="black" cx="328.6" cy="-589.1" rx="3.5" ry="3.5"/>
<text text-anchor="middle" x="294.6" y="-596.4" font-family="Times,serif" font-size="14.00">combine</text>
</g>
<!-- v0&#45;&gt;v5 -->
<g id="edge1" class="edge">
<title>v0&#45;&gt;v5</title>
<path fill="none" stroke="black" d="M165,-658.16C169.95,-649.79 187.59,-622.12 210.6,-610.6 245.27,-593.25 292.03,-590.3 314.88,-589.98"/>
<polygon fill="black" stroke="black" points="315.09,-593.48 325.09,-590 315.1,-586.48 315.09,-593.48"/>
<text text-anchor="middle" x="274.6" y="-614.4" font-family="Times,serif" font-size="14.00">analysis_reads_ch</text>
</g>
<!-- v6 -->
<g id="node7" class="node">
<title>v6</title>
<ellipse fill="none" stroke="black" cx="328.6" cy="-545.1" rx="3.5" ry="3.5"/>
<text text-anchor="middle" x="309.6" y="-552.4" font-family="Times,serif" font-size="14.00">map</text>
</g>
<!-- v5&#45;&gt;v6 -->
<g id="edge5" class="edge">
<title>v5&#45;&gt;v6</title>
<path fill="none" stroke="black" d="M328.6,-585.34C328.6,-580.07 328.6,-568.23 328.6,-558.92"/>
<polygon fill="black" stroke="black" points="332.1,-558.92 328.6,-548.92 325.1,-558.92 332.1,-558.92"/>
</g>
<!-- v1 -->
<g id="node3" class="node">
<title>v1</title>
<ellipse fill="black" stroke="black" cx="591.6" cy="-734.2" rx="3.6" ry="3.6"/>
<text text-anchor="middle" x="549.5" y="-741.6" font-family="Times,serif" font-size="14.00">Channel.of</text>
</g>
<!-- v2 -->
<g id="node4" class="node">
<title>v2</title>
<ellipse fill="none" stroke="black" cx="372.6" cy="-661.6" rx="187.67" ry="18"/>
<text text-anchor="middle" x="372.6" y="-657.9" font-family="Times,serif" font-size="14.00">SF_UPSTREAM:BUILD_FASTA_INDEX</text>
</g>
<!-- v1&#45;&gt;v2 -->
<g id="edge2" class="edge">
<title>v1&#45;&gt;v2</title>
<path fill="none" stroke="black" d="M588.32,-732.55C576.91,-730.27 537.96,-722.21 506.6,-712.6 478.52,-703.99 447.77,-692.66 422.83,-682.96"/>
<polygon fill="black" stroke="black" points="423.81,-679.59 413.22,-679.2 421.25,-686.11 423.81,-679.59"/>
<text text-anchor="middle" x="579.6" y="-701.4" font-family="Times,serif" font-size="14.00">reference_source_ch</text>
</g>
<!-- v9 -->
<g id="node11" class="node">
<title>v9</title>
<ellipse fill="none" stroke="black" cx="809.6" cy="-661.6" rx="231.26" ry="18"/>
<text text-anchor="middle" x="809.6" y="-657.9" font-family="Times,serif" font-size="14.00">SF_CALLING:BUILD_SEQUENCE_DICTIONARY</text>
</g>
<!-- v1&#45;&gt;v9 -->
<g id="edge9" class="edge">
<title>v1&#45;&gt;v9</title>
<path fill="none" stroke="black" d="M594.68,-732.2C611.24,-726.84 691.05,-700.99 748.58,-682.36"/>
<polygon fill="black" stroke="black" points="749.89,-685.62 758.32,-679.21 747.73,-678.96 749.89,-685.62"/>
<text text-anchor="middle" x="773.6" y="-701.4" font-family="Times,serif" font-size="14.00">reference_source_ch</text>
</g>
<!-- v2&#45;&gt;v5 -->
<g id="edge3" class="edge">
<title>v2&#45;&gt;v5</title>
<path fill="none" stroke="black" d="M361.95,-643.53C353.71,-630.33 342.54,-612.44 335.45,-601.08"/>
<polygon fill="black" stroke="black" points="338.25,-598.95 329.98,-592.32 332.31,-602.65 338.25,-598.95"/>
<text text-anchor="middle" x="412.6" y="-614.4" font-family="Times,serif" font-size="14.00">fasta_for_gatk_ch</text>
</g>
<!-- v10 -->
<g id="node12" class="node">
<title>v10</title>
<ellipse fill="none" stroke="black" cx="535.6" cy="-589.1" rx="3.5" ry="3.5"/>
<text text-anchor="middle" x="501.6" y="-596.4" font-family="Times,serif" font-size="14.00">combine</text>
</g>
<!-- v2&#45;&gt;v10 -->
<g id="edge11" class="edge">
<title>v2&#45;&gt;v10</title>
<path fill="none" stroke="black" d="M429.96,-644.42C446,-639.16 463.24,-632.79 478.6,-625.6 495.56,-617.66 513.68,-605.7 524.83,-597.9"/>
<polygon fill="black" stroke="black" points="527.03,-600.63 533.11,-591.96 522.95,-594.94 527.03,-600.63"/>
<text text-anchor="middle" x="566.6" y="-614.4" font-family="Times,serif" font-size="14.00">fasta_for_gatk_ch</text>
</g>
<!-- v3 -->
<g id="node5" class="node">
<title>v3</title>
<ellipse fill="black" stroke="black" cx="1060.6" cy="-734.2" rx="3.6" ry="3.6"/>
<text text-anchor="middle" x="1002.5" y="-741.6" font-family="Times,serif" font-size="14.00">Channel.empty</text>
</g>
<!-- v4 -->
<g id="node6" class="node">
<title>v4</title>
<ellipse fill="black" stroke="black" cx="1060.6" cy="-661.6" rx="1.8" ry="1.8"/>
</g>
<!-- v3&#45;&gt;v4 -->
<g id="edge4" class="edge">
<title>v3&#45;&gt;v4</title>
<path fill="none" stroke="black" d="M1060.6,-730.52C1060.6,-721.28 1060.6,-690.4 1060.6,-673.65"/>
<polygon fill="black" stroke="black" points="1064.1,-673.56 1060.6,-663.56 1057.1,-673.56 1064.1,-673.56"/>
<text text-anchor="middle" x="1124.6" y="-701.4" font-family="Times,serif" font-size="14.00">bwa_reference_ch</text>
</g>
<!-- v7 -->
<g id="node8" class="node">
<title>v7</title>
<ellipse fill="none" stroke="black" cx="328.6" cy="-480.6" rx="178.17" ry="18"/>
<text text-anchor="middle" x="328.6" y="-476.9" font-family="Times,serif" font-size="14.00">SF_ALIGNMENT:ALIGN_MINIMAP2</text>
</g>
<!-- v6&#45;&gt;v7 -->
<g id="edge6" class="edge">
<title>v6&#45;&gt;v7</title>
<path fill="none" stroke="black" d="M328.6,-541.41C328.6,-535.7 328.6,-521.79 328.6,-508.83"/>
<polygon fill="black" stroke="black" points="332.1,-508.8 328.6,-498.8 325.1,-508.8 332.1,-508.8"/>
</g>
<!-- v8 -->
<g id="node9" class="node">
<title>v8</title>
<ellipse fill="none" stroke="black" cx="328.6" cy="-393.6" rx="178.97" ry="18"/>
<text text-anchor="middle" x="328.6" y="-389.9" font-family="Times,serif" font-size="14.00">SF_PREPROCESS:RUN_SAMTOOLS</text>
</g>
<!-- v7&#45;&gt;v8 -->
<g id="edge7" class="edge">
<title>v7&#45;&gt;v8</title>
<path fill="none" stroke="black" d="M328.6,-462.4C328.6,-450.76 328.6,-435.15 328.6,-421.84"/>
<polygon fill="black" stroke="black" points="332.1,-421.78 328.6,-411.78 325.1,-421.78 332.1,-421.78"/>
<text text-anchor="middle" x="366.6" y="-433.4" font-family="Times,serif" font-size="14.00">aligned_ch</text>
</g>
<!-- v12 -->
<g id="node10" class="node">
<title>v12</title>
<ellipse fill="none" stroke="black" cx="432.6" cy="-321.1" rx="3.5" ry="3.5"/>
<text text-anchor="middle" x="398.6" y="-328.4" font-family="Times,serif" font-size="14.00">combine</text>
</g>
<!-- v8&#45;&gt;v12 -->
<g id="edge8" class="edge">
<title>v8&#45;&gt;v12</title>
<path fill="none" stroke="black" d="M346.56,-375.52C358.01,-365.18 373.49,-352.19 388.6,-342.6 398.69,-336.2 411.11,-330.6 420.18,-326.87"/>
<polygon fill="black" stroke="black" points="421.65,-330.06 429.69,-323.15 419.1,-323.54 421.65,-330.06"/>
<text text-anchor="middle" x="455.1" y="-346.4" font-family="Times,serif" font-size="14.00">processed_bam_ch</text>
</g>
<!-- v13 -->
<g id="node14" class="node">
<title>v13</title>
<ellipse fill="none" stroke="black" cx="432.6" cy="-277.1" rx="3.5" ry="3.5"/>
<text text-anchor="middle" x="413.6" y="-284.4" font-family="Times,serif" font-size="14.00">map</text>
</g>
<!-- v12&#45;&gt;v13 -->
<g id="edge14" class="edge">
<title>v12&#45;&gt;v13</title>
<path fill="none" stroke="black" d="M432.6,-317.34C432.6,-312.07 432.6,-300.23 432.6,-290.92"/>
<polygon fill="black" stroke="black" points="436.1,-290.92 432.6,-280.92 429.1,-290.92 436.1,-290.92"/>
</g>
<!-- v9&#45;&gt;v10 -->
<g id="edge10" class="edge">
<title>v9&#45;&gt;v10</title>
<path fill="none" stroke="black" d="M754.84,-644.11C720,-633.87 673.83,-620.77 632.6,-610.6 602.86,-603.26 567.59,-596.22 548.85,-592.61"/>
<polygon fill="black" stroke="black" points="549.45,-589.16 538.97,-590.73 548.14,-596.04 549.45,-589.16"/>
</g>
<!-- v11 -->
<g id="node13" class="node">
<title>v11</title>
<ellipse fill="none" stroke="black" cx="535.6" cy="-520.1" rx="3.5" ry="3.5"/>
<text text-anchor="middle" x="516.6" y="-527.4" font-family="Times,serif" font-size="14.00">map</text>
</g>
<!-- v10&#45;&gt;v11 -->
<g id="edge12" class="edge">
<title>v10&#45;&gt;v11</title>
<path fill="none" stroke="black" d="M535.6,-585.56C535.6,-577.18 535.6,-550.09 535.6,-533.81"/>
<polygon fill="black" stroke="black" points="539.1,-533.65 535.6,-523.65 532.1,-533.65 539.1,-533.65"/>
</g>
<!-- v11&#45;&gt;v12 -->
<g id="edge13" class="edge">
<title>v11&#45;&gt;v12</title>
<path fill="none" stroke="black" d="M536.35,-516.62C541.37,-499.43 568.58,-397.06 521.6,-342.6 511.86,-331.31 468.37,-325.54 446,-323.28"/>
<polygon fill="black" stroke="black" points="446.16,-319.78 435.88,-322.35 445.52,-326.75 446.16,-319.78"/>
</g>
<!-- v14 -->
<g id="node15" class="node">
<title>v14</title>
<ellipse fill="none" stroke="black" cx="432.6" cy="-218.6" rx="129.18" ry="18"/>
<text text-anchor="middle" x="432.6" y="-214.9" font-family="Times,serif" font-size="14.00">SF_CALLING:CALL_GATK</text>
</g>
<!-- v13&#45;&gt;v14 -->
<g id="edge15" class="edge">
<title>v13&#45;&gt;v14</title>
<path fill="none" stroke="black" d="M432.6,-273.37C432.6,-268.43 432.6,-257.5 432.6,-246.77"/>
<polygon fill="black" stroke="black" points="436.1,-246.75 432.6,-236.75 429.1,-246.75 436.1,-246.75"/>
</g>
<!-- v15 -->
<g id="node16" class="node">
<title>v15</title>
<ellipse fill="none" stroke="black" cx="432.6" cy="-131.6" rx="232.06" ry="18"/>
<text text-anchor="middle" x="432.6" y="-127.9" font-family="Times,serif" font-size="14.00">SF_ENDPOINTS:RUN_CLINICAL_ANNOTATION</text>
</g>
<!-- v14&#45;&gt;v15 -->
<g id="edge16" class="edge">
<title>v14&#45;&gt;v15</title>
<path fill="none" stroke="black" d="M432.6,-200.4C432.6,-188.76 432.6,-173.15 432.6,-159.84"/>
<polygon fill="black" stroke="black" points="436.1,-159.78 432.6,-149.78 429.1,-159.78 436.1,-159.78"/>
<text text-anchor="middle" x="479.6" y="-171.4" font-family="Times,serif" font-size="14.00">called_vcf_ch</text>
</g>
<!-- v16 -->
<g id="node17" class="node">
<title>v16</title>
<ellipse fill="none" stroke="black" cx="432.6" cy="-58.6" rx="215.56" ry="18"/>
<text text-anchor="middle" x="432.6" y="-54.9" font-family="Times,serif" font-size="14.00">SF_ENDPOINTS:BUILD_CLINICAL_REPORT</text>
</g>
<!-- v15&#45;&gt;v16 -->
<g id="edge17" class="edge">
<title>v15&#45;&gt;v16</title>
<path fill="none" stroke="black" d="M432.6,-113.41C432.6,-105.39 432.6,-95.65 432.6,-86.67"/>
<polygon fill="black" stroke="black" points="436.1,-86.63 432.6,-76.63 429.1,-86.63 436.1,-86.63"/>
</g>
<!-- v17 -->
<g id="node18" class="node">
<title>v17</title>
<ellipse fill="black" stroke="black" cx="432.6" cy="-1.8" rx="1.8" ry="1.8"/>
</g>
<!-- v16&#45;&gt;v17 -->
<g id="edge18" class="edge">
<title>v16&#45;&gt;v17</title>
<path fill="none" stroke="black" d="M432.6,-40.56C432.6,-31.87 432.6,-21.56 432.6,-13.9"/>
<polygon fill="black" stroke="black" points="436.1,-13.76 432.6,-3.76 429.1,-13.76 436.1,-13.76"/>
</g>
</g>
</svg>
